<?xml version="1.0" standalone="no"?>
<!DOCTYPE svg PUBLIC "-//W3C//DTD SVG 20010904//EN"
 "http://www.w3.org/TR/2001/REC-SVG-20010904/DTD/svg10.dtd">
<svg version="1.0" xmlns="http://www.w3.org/2000/svg"
 width="672.000000pt" height="371.000000pt" viewBox="0 0 672.000000 371.000000"
 preserveAspectRatio="xMidYMid meet">

<g transform="translate(0.000000,371.000000) scale(0.100000,-0.100000)"
fill="#000000" stroke="none">
<path d="M1413 1142 l-23 -3 0 -439 0 -439 33 -5 c17 -3 46 -4 62 -3 l30 2 3
443 c2 350 0 442 -10 443 -35 3 -75 4 -95 1z"/>
<path d="M2625 1138 c-27 -15 -55 -49 -55 -70 0 -30 58 -78 96 -78 53 0 82 38
75 100 -3 23 -49 60 -74 60 -12 0 -31 -6 -42 -12z"/>
<path d="M1754 1098 c-33 -35 -74 -92 -74 -102 0 -3 23 -6 51 -6 48 0 54 3
110 57 32 31 59 62 59 70 0 9 -16 13 -58 13 -53 0 -61 -3 -88 -32z"/>
<path d="M944 1100 c-111 -15 -173 -58 -217 -150 -21 -42 -22 -60 -22 -275 0
-261 2 -271 78 -342 56 -53 69 -59 154 -72 80 -12 302 -15 320 -3 10 6 26 78
24 107 -1 6 -64 11 -162 12 -185 3 -210 11 -245 80 -38 74 -40 374 -4 454 12
27 68 67 102 73 13 3 82 5 153 5 l130 1 12 51 c7 28 10 55 7 60 -6 11 -245 10
-330 -1z"/>
<path d="M4498 1105 c-2 -1 -27 -6 -56 -9 -66 -8 -100 -25 -140 -70 -36 -41
-47 -94 -40 -201 4 -54 11 -80 28 -104 34 -48 160 -101 242 -101 57 0 149 -27
175 -52 19 -18 23 -32 23 -79 0 -74 -18 -96 -90 -109 -30 -6 -122 -10 -203 -9
-82 1 -152 -2 -157 -7 -4 -5 -10 -31 -12 -59 l-3 -50 190 -2 c105 -1 211 2
235 8 25 5 55 11 67 14 28 7 76 53 99 96 14 26 18 55 18 124 -2 178 -53 223
-289 256 -49 6 -109 20 -132 31 -49 21 -58 44 -50 115 9 85 57 103 280 103
l157 0 0 24 c0 13 3 38 6 55 l7 32 -176 -1 c-96 -1 -177 -3 -179 -5z"/>
<path d="M2074 876 c-78 -15 -125 -43 -146 -86 -16 -31 -18 -67 -18 -282 l0
-248 24 -6 c13 -3 44 -4 67 -2 l44 4 3 235 2 236 26 24 c23 22 34 24 116 24
86 0 91 -1 114 -28 24 -28 24 -29 24 -257 l0 -229 33 -5 c17 -2 48 -4 67 -3
l35 2 0 245 c0 287 -6 314 -79 350 -82 39 -196 49 -312 26z"/>
<path d="M1649 868 c-8 -15 -6 -586 2 -600 8 -16 20 -18 72 -15 l62 3 3 275
c1 151 0 289 -3 307 l-6 32 -64 0 c-36 0 -66 -1 -66 -2z"/>
<path d="M2590 562 l0 -308 58 1 c31 2 63 3 70 4 9 1 12 69 12 306 l0 305 -70
0 -70 0 0 -308z"/>
<path d="M3006 859 c-68 -16 -106 -40 -130 -83 -52 -91 -57 -308 -10 -413 37
-82 122 -113 306 -113 107 0 113 3 124 68 l7 42 -117 0 c-120 0 -145 6 -181
44 -18 18 -20 34 -20 156 0 112 3 139 18 161 23 35 77 49 185 49 50 0 93 3 95
8 3 4 8 26 12 50 l7 42 -129 -1 c-70 -1 -145 -5 -167 -10z"/>
<path d="M3433 820 c-9 -43 -8 -50 6 -51 9 0 62 0 119 1 157 2 206 -20 218
-97 8 -57 -2 -68 -49 -48 -24 10 -69 15 -132 15 -120 0 -182 -26 -215 -90 -30
-58 -27 -149 5 -209 32 -58 48 -68 127 -80 64 -10 334 -7 369 4 29 10 34 45
34 265 0 187 -2 208 -20 239 -46 77 -119 101 -316 101 l-136 0 -10 -50z m286
-276 c45 -9 63 -48 59 -127 l-3 -62 -105 -3 c-124 -3 -150 7 -167 61 -18 54 6
113 51 126 37 11 122 13 165 5z"/>
<path d="M4970 858 c-4 -134 3 -472 10 -498 25 -91 100 -125 275 -124 106 0
126 3 170 25 40 20 55 34 77 78 l28 53 0 240 0 239 -67 -3 -68 -3 -3 -230 c-2
-214 -4 -231 -23 -251 -50 -53 -179 -55 -231 -4 l-28 28 0 231 0 231 -70 0
c-49 0 -70 -4 -70 -12z"/>
<path d="M5760 850 c-62 -21 -94 -53 -109 -108 -16 -56 -14 -482 2 -483 6 -1
38 -2 70 -3 l57 -2 0 214 c0 290 1 292 157 292 69 0 68 -1 77 68 l6 42 -102 0
c-74 -1 -118 -6 -158 -20z"/>
</g>
</svg>
